<svg width="40" height="40" viewBox="0 0 40 40" fill="none" xmlns="http://www.w3.org/2000/svg">
<path d="M18 30.5C18 29.837 18.2634 29.2011 18.7322 28.7322C19.2011 28.2634 19.837 28 20.5 28C21.163 28 21.7989 28.2634 22.2678 28.7322C22.7366 29.2011 23 29.837 23 30.5C23 31.163 22.7366 31.7989 22.2678 32.2678C21.7989 32.7366 21.163 33 20.5 33C19.837 33 19.2011 32.7366 18.7322 32.2678C18.2634 31.7989 18 31.163 18 30.5ZM18 20.5C18 19.837 18.2634 19.2011 18.7322 18.7322C19.2011 18.2634 19.837 18 20.5 18C21.163 18 21.7989 18.2634 22.2678 18.7322C22.7366 19.2011 23 19.837 23 20.5C23 21.163 22.7366 21.7989 22.2678 22.2678C21.7989 22.7366 21.163 23 20.5 23C19.837 23 19.2011 22.7366 18.7322 22.2678C18.2634 21.7989 18 21.163 18 20.5ZM18 10.5C18 9.83696 18.2634 9.20107 18.7322 8.73223C19.2011 8.26339 19.837 8 20.5 8C21.163 8 21.7989 8.26339 22.2678 8.73223C22.7366 9.20107 23 9.83696 23 10.5C23 11.163 22.7366 11.7989 22.2678 12.2678C21.7989 12.7366 21.163 13 20.5 13C19.837 13 19.2011 12.7366 18.7322 12.2678C18.2634 11.7989 18 11.163 18 10.5Z" fill="#1E1E2F"/>
</svg>
